<?xml version="1.0" encoding="utf-8"?>
<!-- Generator: Adobe Illustrator 23.0.3, SVG Export Plug-In . SVG Version: 6.00 Build 0)  -->
<svg version="1.1" id="Ñëîé_1" xmlns="http://www.w3.org/2000/svg" xmlns:xlink="http://www.w3.org/1999/xlink" x="0px" y="0px"
	 viewBox="0 0 2555 1603" style="enable-background:new 0 0 2555 1603;" xml:space="preserve">
<style type="text/css">
	.st0{fill-rule:evenodd;clip-rule:evenodd;fill:#C92333;}
	.st1{fill:#64B2BA;}
</style>
<g>
	<g>
		<path id="XMLID_156_" class="st0" d="M1033.49,490.98h301.01v615.56h343.07c64.48,0,99.69-46.89,81.97-107.94
			c-35.44-122.12-184.61-170.18-327.65-170.18c0-106.2,0-336.86,0-336.86l628.64-266.9v324.25l-282.79,112.48
			c127.97,71.75,226,158.25,256.74,259.48c39.3,136.39,16.82,304.39-99.28,413.89c-90.15,85.03-170.58,76.18-257.63,82.11
			l-644.09,0.62v-0.62h-1.53L1033.49,490.98L1033.49,490.98z"/>
		<path id="XMLID_155_" class="st0" d="M585.6,490.98v542.65c0,37.92-28.95,69.06-65.96,72.56l-156.18-615.2H97.29l158.31,611.17
			h-1.14l0.86,4.39H140.89l60.02,310.51l116.67,0.08l0.07,0.37l208.36-0.19l0.05-0.07c198.53-1.38,359.08-162.67,359.08-361.53
			V490.98H585.6z"/>
		<polygon id="XMLID_154_" class="st0" points="2511.43,1417.5 2210.29,1417.5 2210.29,535.99 2511.43,414.76 		"/>
		<path id="XMLID_151_" class="st1" d="M2468.79,102.98c-24.76-24.74-58.28-38.21-93.78-38.77c-0.15,0-0.29-0.03-0.45-0.03
			c0,0-0.18,0-0.27,0l-0.08,0l-0.13,0c-0.13,0-0.22,0-0.22,0c-0.24,0-0.39,0.02-0.39,0.02c-35.66-0.07-69.01,13.21-94.2,37.51
			c-25.24,24.35-39.31,56.96-39.61,91.84c-0.33,37.41,12.21,71.6,34.97,97.04c-12.43,5.13-18.45,7.78-32.51,13.26
			c-24.64,9.6-36.69,37.04-26.92,61.28c7.42,18.4,25.27,29.67,44.21,29.83c6.02,0.05,12.2-0.9,18.09-3.33
			c66.28-27.34,141.47-56.68,171.28-79.42c2.12-1.61,8.3-6.13,11.93-9.42c34.45-31.3,46.05-58.43,46.51-110.43
			C2507.51,157.48,2493.59,127.77,2468.79,102.98z M2374.01,243.02c-25.9-0.23-46.71-21.07-46.49-46.54
			c0.22-25.48,21.4-45.94,47.3-45.72c25.9,0.23,46.71,21.07,46.49,46.54S2399.9,243.25,2374.01,243.02z"/>
	</g>
</g>
</svg>
